<svg width="24" height="24" viewBox="0 0 24 24" fill="none" xmlns="http://www.w3.org/2000/svg">
<path d="M9.75 7.5C9.75 7.36193 9.86193 7.25 10 7.25H19C19.1381 7.25 19.25 7.36193 19.25 7.5C19.25 7.63807 19.1381 7.75 19 7.75H10C9.86193 7.75 9.75 7.63807 9.75 7.5Z" stroke="white" stroke-width="1.5"/>
<rect x="5.5" y="11.5" width="14" height="1" rx="0.5" stroke="white"/>
<path d="M4.75 16.5C4.75 16.3619 4.86193 16.25 5 16.25H14C14.1381 16.25 14.25 16.3619 14.25 16.5C14.25 16.6381 14.1381 16.75 14 16.75H5C4.86193 16.75 4.75 16.6381 4.75 16.5Z" stroke="white" stroke-width="1.5"/>
</svg>
