<svg width="24" height="24" viewBox="0 0 24 24" fill="none" xmlns="http://www.w3.org/2000/svg">
<path d="M16.25 8C16.25 10.3472 14.3472 12.25 12 12.25C9.65279 12.25 7.75 10.3472 7.75 8C7.75 5.65279 9.65279 3.75 12 3.75C14.3472 3.75 16.25 5.65279 16.25 8Z" stroke="white" stroke-width="1.5"/>
<path d="M19.25 18C19.25 18.2351 19.1442 18.5182 18.8321 18.8411C18.5165 19.1675 18.0235 19.4958 17.3562 19.7878C16.0239 20.3707 14.1307 20.75 12 20.75C9.86928 20.75 7.97615 20.3707 6.64376 19.7878C5.97645 19.4958 5.48352 19.1675 5.16789 18.8411C4.85575 18.5182 4.75 18.2351 4.75 18C4.75 17.7649 4.85575 17.4818 5.16789 17.1589C5.48352 16.8325 5.97645 16.5042 6.64376 16.2122C7.97615 15.6293 9.86928 15.25 12 15.25C14.1307 15.25 16.0239 15.6293 17.3562 16.2122C18.0235 16.5042 18.5165 16.8325 18.8321 17.1589C19.1442 17.4818 19.25 17.7649 19.25 18Z" stroke="white" stroke-width="1.5"/>
</svg>
